<svg width="110" height="40" viewBox="0 0 110 40" fill="none" xmlns="http://www.w3.org/2000/svg">
<g clip-path="url(#clip0_1880_8491)">
<path d="M20 40C31.0457 40 40 31.0457 40 20C40 8.9543 31.0457 0 20 0C8.9543 0 0 8.9543 0 20C0 31.0457 8.9543 40 20 40Z" fill="#175CD3"/>
<path d="M20 8L26 20L20 32L14 20L20 8Z" fill="white"/>
<path d="M52.928 28.312C51.728 28.312 50.656 28.144 49.712 27.808C48.768 27.456 47.968 26.944 47.312 26.272C46.656 25.584 46.152 24.736 45.8 23.728C45.448 22.72 45.272 21.568 45.272 20.272C45.272 18.928 45.448 17.736 45.8 16.696C46.168 15.656 46.68 14.776 47.336 14.056C47.992 13.32 48.776 12.768 49.688 12.4C50.6 12.032 51.616 11.848 52.736 11.848C53.6 11.848 54.4 11.96 55.136 12.184C55.872 12.408 56.504 12.744 57.032 13.192C57.576 13.624 58 14.152 58.304 14.776C58.608 15.384 58.768 16.08 58.784 16.864L55.952 17.608C55.968 16.888 55.816 16.288 55.496 15.808C55.176 15.328 54.76 14.968 54.248 14.728C53.752 14.488 53.216 14.368 52.64 14.368C52.128 14.368 51.616 14.472 51.104 14.68C50.608 14.888 50.16 15.216 49.76 15.664C49.36 16.112 49.04 16.704 48.8 17.44C48.56 18.16 48.44 19.048 48.44 20.104C48.44 21.448 48.632 22.536 49.016 23.368C49.416 24.2 49.96 24.816 50.648 25.216C51.352 25.6 52.144 25.792 53.024 25.792C53.92 25.792 54.632 25.616 55.16 25.264C55.688 24.896 56.072 24.416 56.312 23.824C56.552 23.216 56.688 22.56 56.72 21.856L59.384 22.312C59.368 23.144 59.24 23.928 59 24.664C58.76 25.4 58.384 26.04 57.872 26.584C57.376 27.128 56.72 27.552 55.904 27.856C55.088 28.16 54.096 28.312 52.928 28.312ZM61.9228 28V10.96H64.8988V28H61.9228ZM72.8366 32.296C72.1966 32.296 71.5486 32.232 70.8926 32.104C70.2366 31.976 69.6206 31.776 69.0446 31.504C68.4846 31.248 68.0126 30.912 67.6286 30.496L68.6606 28C69.1246 28.528 69.7246 28.928 70.4606 29.2C71.1966 29.472 71.9406 29.608 72.6926 29.608C73.5726 29.608 74.3006 29.424 74.8766 29.056C75.4526 28.704 75.8926 28.152 76.1966 27.4C76.5006 26.648 76.6686 25.712 76.7006 24.592L76.8686 22.312H76.3646C76.2046 23.4 75.9406 24.288 75.5726 24.976C75.2046 25.648 74.7406 26.144 74.1806 26.464C73.6366 26.768 72.9966 26.92 72.2606 26.92C71.3486 26.92 70.5806 26.688 69.9566 26.224C69.3326 25.76 68.8606 25.072 68.5406 24.16C68.2366 23.248 68.0846 22.12 68.0846 20.776V15.448H71.1326V20.08C71.1326 21.584 71.3166 22.68 71.6846 23.368C72.0526 24.04 72.6126 24.376 73.3646 24.376C73.7646 24.376 74.1326 24.272 74.4686 24.064C74.8046 23.84 75.0846 23.528 75.3086 23.128C75.5486 22.712 75.7326 22.2 75.8606 21.592C76.0046 20.984 76.0846 20.288 76.1006 19.504V15.448H79.1486V24.712C79.1486 25.72 79.0606 26.632 78.8846 27.448C78.7246 28.248 78.4766 28.944 78.1406 29.536C77.8046 30.144 77.3806 30.656 76.8686 31.072C76.3726 31.488 75.7886 31.792 75.1166 31.984C74.4446 32.192 73.6846 32.296 72.8366 32.296ZM82.5009 28V20.344V15.448H85.0209L84.9489 19.288H85.3809C85.6049 18.344 85.9009 17.568 86.2689 16.96C86.6529 16.352 87.1409 15.896 87.7329 15.592C88.3249 15.288 89.0129 15.136 89.7969 15.136C91.2209 15.136 92.3009 15.64 93.0369 16.648C93.7889 17.656 94.1649 19.216 94.1649 21.328V28H91.1169V21.64C91.1169 20.28 90.9089 19.288 90.4929 18.664C90.0929 18.024 89.4929 17.704 88.6929 17.704C88.0209 17.704 87.4529 17.92 86.9889 18.352C86.5249 18.768 86.1649 19.328 85.9089 20.032C85.6689 20.72 85.5409 21.48 85.5249 22.312V28H82.5009ZM100.264 28.312C99.5763 28.312 98.9603 28.184 98.4163 27.928C97.8723 27.656 97.4403 27.256 97.1203 26.728C96.8163 26.2 96.6643 25.544 96.6643 24.76C96.6643 24.104 96.7843 23.544 97.0243 23.08C97.2803 22.616 97.6563 22.24 98.1523 21.952C98.6483 21.648 99.2643 21.4 100 21.208C100.736 21 101.6 20.824 102.592 20.68C103.136 20.6 103.576 20.52 103.912 20.44C104.264 20.36 104.52 20.24 104.68 20.08C104.84 19.904 104.92 19.648 104.92 19.312C104.92 18.816 104.744 18.392 104.392 18.04C104.056 17.672 103.504 17.488 102.736 17.488C102.272 17.488 101.824 17.568 101.392 17.728C100.976 17.888 100.616 18.144 100.312 18.496C100.008 18.832 99.8003 19.28 99.6883 19.84L96.9763 19C97.1523 18.36 97.4083 17.808 97.7443 17.344C98.0803 16.864 98.4963 16.456 98.9923 16.12C99.4883 15.784 100.056 15.536 100.696 15.376C101.336 15.216 102.04 15.136 102.808 15.136C103.976 15.136 104.936 15.328 105.688 15.712C106.44 16.08 107 16.664 107.368 17.464C107.736 18.248 107.92 19.264 107.92 20.512V22.864C107.92 23.408 107.928 23.976 107.944 24.568C107.976 25.144 108.008 25.728 108.04 26.32C108.088 26.896 108.144 27.456 108.208 28H105.496C105.432 27.552 105.376 27.072 105.328 26.56C105.28 26.048 105.24 25.528 105.208 25H104.824C104.6 25.608 104.28 26.168 103.864 26.68C103.448 27.176 102.936 27.576 102.328 27.88C101.736 28.168 101.048 28.312 100.264 28.312ZM101.464 26.08C101.784 26.08 102.104 26.024 102.424 25.912C102.76 25.8 103.088 25.632 103.408 25.408C103.728 25.184 104.024 24.912 104.296 24.592C104.568 24.256 104.8 23.864 104.992 23.416L104.944 21.28L105.52 21.376C105.248 21.6 104.912 21.776 104.512 21.904C104.112 22.032 103.688 22.128 103.24 22.192C102.808 22.256 102.368 22.336 101.92 22.432C101.488 22.512 101.096 22.624 100.744 22.768C100.392 22.896 100.112 23.088 99.9043 23.344C99.6963 23.584 99.5923 23.92 99.5923 24.352C99.5923 24.896 99.7683 25.32 100.12 25.624C100.472 25.928 100.92 26.08 101.464 26.08Z" fill="#175CD3"/>
</g>
<defs>
<clipPath id="clip0_1880_8491">
<rect width="110" height="40" fill="white"/>
</clipPath>
</defs>
</svg>
